<svg width="47" height="35" viewBox="0 0 47 35" fill="none" xmlns="http://www.w3.org/2000/svg">
<g clip-path="url(#clip0_16_736)">
<path d="M17.8509 -0.000178618C17.5885 0.0288753 17.3379 0.100571 17.1169 0.209821C17.1169 0.209821 14.8302 1.28136 12.3717 2.4404C9.91328 3.59809 7.17824 4.87424 6.55278 5.13271C6.5142 5.14518 6.47622 5.15865 6.4389 5.17309C4.16844 6.21636 3.69663 7.92059 3.61528 8.87636C3.60986 8.92078 3.61528 8.95713 3.61528 9.00424C3.5954 9.36232 3.61528 9.59251 3.61528 9.59251V27.1773C3.61528 29.7323 7.61571 30.9614 11.4119 30.9614C12.6772 30.9614 13.9426 30.8092 15.0272 30.54C15.7503 30.2708 16.2691 29.7323 16.2691 29.1939V15.0592C16.2691 11.9631 17.173 10.5092 19.8845 9.29771C20.6076 9.02848 28.1891 5.13136 28.1891 5.13136C28.5506 4.86213 28.923 4.31559 28.923 3.91174V3.78521C28.923 3.24674 28.5614 2.83482 28.0191 2.56559C27.4768 2.29636 26.7537 2.29636 26.2114 2.56559C26.0307 2.70021 15.0037 8.22886 12.6537 9.17117C10.3037 10.2481 8.11101 10.5079 7.56871 9.96944C7.40059 9.84424 7.25417 9.46059 7.23067 9.08636V9.00155C7.23248 8.6354 7.35901 7.94617 8.36048 7.48713C9.3764 7.06578 11.8981 5.86636 14.3494 4.71136C15.3852 4.22271 15.5135 4.17021 16.3252 3.78521C16.432 4.11406 16.7012 4.4009 17.0792 4.58862C17.4573 4.77633 17.9163 4.85116 18.3651 4.79821C18.8138 4.74526 19.2193 4.56841 19.5009 4.30286C19.7825 4.03732 19.9194 3.70255 19.8845 3.36521V1.34598C19.8865 1.1541 19.8334 0.964122 19.7288 0.788774C19.6242 0.613426 19.4704 0.456762 19.2778 0.329284C19.0853 0.201806 18.8583 0.10646 18.6122 0.0496374C18.3661 -0.00718464 18.1065 -0.0241695 17.8509 -0.000178618ZM32.3124 4.71136C32.0249 4.74696 31.7533 4.83379 31.5206 4.96444C31.5206 4.96444 22.4207 9.52386 20.8444 10.306C20.8253 10.32 20.8066 10.3344 20.7884 10.3491C19.4796 11.08 18.7041 11.9496 18.3588 12.7452C18.1654 13.194 18.0701 13.6631 18.0768 14.1344V14.5558C18.0742 14.5975 18.0742 14.6393 18.0768 14.681V30.9614C18.0768 33.5191 22.0321 34.9998 25.6474 34.9998C27.2744 34.9998 28.7422 34.7387 29.8268 34.2002C31.9961 33.2579 42.4807 27.176 42.4807 27.176C43.023 26.9067 43.3845 26.5271 43.3845 26.1233V8.62328C43.3845 7.95021 43.0338 7.54636 42.3107 7.27713C41.7684 7.0079 40.8772 7.13444 40.3349 7.40367C37.4426 9.01905 29.6569 13.5798 27.8492 14.3875C25.3184 15.4644 22.9341 15.7337 22.0302 15.0606C21.6687 14.7914 21.6922 14.5383 21.6922 14.1344C21.7031 13.9029 21.7374 13.7037 21.8061 13.5448C21.9073 13.3106 22.1134 13.0225 22.8781 12.5783C22.9142 12.5567 22.8961 12.5581 22.9341 12.5366C24.2411 11.8864 28.2379 9.85771 30.8446 8.53848C30.9922 8.83351 31.2741 9.08066 31.6412 9.23694C32.0082 9.39321 32.4373 9.44873 32.8536 9.39383C33.2699 9.33893 33.6473 9.17708 33.9199 8.93644C34.1926 8.69581 34.3434 8.3916 34.3461 8.07675V6.05751C34.3481 5.86564 34.295 5.67566 34.1904 5.50031C34.0857 5.32497 33.932 5.1683 33.7394 5.04082C33.5468 4.91334 33.3198 4.818 33.0737 4.76118C32.8276 4.70435 32.568 4.68737 32.3124 4.71136ZM39.7691 14.5558V17.2481L30.7307 22.4631V19.7708L39.7691 14.5558Z" fill="#2D85C5"/>
</g>
<defs>
<clipPath id="clip0_16_736">
<rect width="47" height="35" fill="white"/>
</clipPath>
</defs>
</svg>
